<svg xmlns="http://www.w3.org/2000/svg" xmlns:xlink="http://www.w3.org/1999/xlink" width="360" height="308" viewBox="0 0 360 308">
    <defs>
        <path id="zgkrvjzzaa" d="M0 0.621L277.422 0.621 277.422 185 0 185z"/>
    </defs>
    <g fill="none" fill-rule="evenodd">
        <g>
            <g>
                <path d="M0 0H360V308H0z" transform="translate(0 -92) translate(0 92)"/>
                <g>
                    <g>
                        <g transform="translate(0 -92) translate(0 92) translate(41 49) translate(0 25.12)">
                            <mask id="ndbzxg4y9b" fill="#fff">
                                <use xlink:href="#zgkrvjzzaa"/>
                            </mask>
                            <path fill="#4ACFF1" d="M246.46 10.457c-73.667-23.01-82.415-1.908-148.922 24.88C31.03 62.123-24.922 76.74 11.495 122.29c29.41 36.788 115.394 83.027 189.97 53.104 77.315-31.02 101.457-147.302 44.996-164.937" mask="url(#ndbzxg4y9b)"/>
                        </g>
                        <path fill="#ABEEFF" d="M209.633 133.875c67.368-27.4 69.654-82.167 50.932-114.888-1.06-1.85-2.583-3.406-4.45-4.438-2.918-1.614-6.13-2.992-9.654-4.091-73.668-23.01-82.416-1.909-148.923 24.879-64.112 25.822-118.402 40.34-89.604 82.157.804 1.168 1.798 2.204 2.96 3.016 39.789 27.758 125.456 43.171 198.739 13.365" transform="translate(0 -92) translate(0 92) translate(41 49) translate(0 25.12)"/>
                        <path fill="#75CCE0" d="M241.436 75.994c3.851 17.927-12.228 36.584-35.912 41.67-28.691 6.164-46.232-6.371-49.857-23.247-3.85-17.927 12.227-36.584 35.912-41.672 23.684-5.086 46.005 5.322 49.857 23.249" transform="translate(0 -92) translate(0 92) translate(41 49) translate(0 25.12)"/>
                        <path fill="#D63646" d="M241.337 80.258c1.177 18.784-17.216 35.224-41.08 36.718-23.862 1.494-44.161-12.524-45.337-31.308-1.177-18.785 17.216-35.224 41.079-36.718 23.863-1.494 44.162 12.523 45.338 31.308" transform="translate(0 -92) translate(0 92) translate(41 49) translate(0 25.12)"/>
                        <path fill="#F1444D" d="M195.999 48.95c-22.161 1.388-39.593 15.667-41.026 32.74 1.54 18.503 21.659 32.23 45.285 30.75 22.161-1.386 39.593-15.665 41.026-32.74-1.54-18.501-21.66-32.228-45.285-30.75" transform="translate(0 -92) translate(0 92) translate(41 49) translate(0 25.12)"/>
                        <path fill="#EF3942" d="M196.825 65.46c-17.716.741-31.652 8.362-32.798 17.474 1.232 9.874 17.315 17.2 36.203 16.41 17.716-.74 31.652-8.36 32.797-17.472-1.23-9.875-17.315-17.2-36.202-16.411" transform="translate(0 -92) translate(0 92) translate(41 49) translate(0 25.12) rotate(-6 198.527 82.403)"/>
                    </g>
                    <g>
                        <path fill="#F2CFB1" d="M104.966 98.39c.968-.18 2.177-.48 3.27-.807 1.119-.324 2.234-.7 3.342-1.09 2.216-.789 4.4-1.71 6.553-2.687 2.157-.966 4.272-2.05 6.369-3.148l3.118-1.712 3.075-1.793c1.044-.649 2.305-.656 3.324-.129l.719.375c2.195 1.143 4.454 2.287 6.694 3.397 2.244 1.114 4.497 2.201 6.75 3.25 2.254 1.051 4.512 2.07 6.752 3.003 2.225.926 4.49 1.825 6.526 2.427 3.783 1.121 5.943 5.097 4.82 8.881-1.12 3.783-5.094 5.942-8.878 4.821-.474-.14-.922-.325-1.341-.549l-.207-.113c-2.598-1.407-4.803-2.872-7.008-4.36-2.19-1.489-4.298-3.01-6.377-4.552-2.081-1.539-4.128-3.099-6.154-4.677-2.033-1.58-4.027-3.16-6.045-4.797l4.043.246-3.481 1.391-3.516 1.302c-2.365.823-4.732 1.621-7.146 2.3-2.41.687-4.837 1.311-7.31 1.797-1.237.241-2.477.462-3.737.632-1.282.176-2.468.311-3.92.353-1.04.03-1.905-.788-1.935-1.827-.028-.94.64-1.74 1.539-1.905l.16-.03zM181.577 85.67l-20.683 1.677c-1.597.13-2.997-1.06-3.127-2.656-.123-1.52.958-2.862 2.438-3.102l20.494-3.252c2.016-.32 3.908 1.054 4.23 3.07.32 2.016-1.056 3.909-3.072 4.228-.09.014-.19.026-.28.034" transform="translate(0 -92) translate(0 92) translate(41 49) translate(37 .12)"/>
                        <path fill="#565554" d="M173.586 80.208l-3.638-4.328c-.22-.26-.288-.617-.18-.94l4.767-14.42c.24-.732 1.192-.914 1.687-.325l3.637 4.327c.22.262.289.618.18.942l-4.766 14.42c-.242.731-1.192.913-1.687.324" transform="translate(0 -92) translate(0 92) translate(41 49) translate(37 .12)"/>
                        <path fill="#565554" d="M174.231 80.552l-3.403-4.671c-.22-.262-.288-.618-.182-.942l4.64-15.077c.497-.372 1.32-.256 1.815.333l3.638 4.328c.22.26.288.617.18.94l-4.767 14.42c-.242.732-1.035.676-1.92.669" transform="translate(0 -92) translate(0 92) translate(41 49) translate(37 .12)"/>
                        <path fill="#F9D6B7" d="M172.493 75.287c-.88.694-1.794 1.473-2.624 2.258-.839.788-1.624 1.612-2.302 2.446-1.275 1.608-2.595 3.741-3.823 5.686l-.006.008c-.983 1.558-3.044 2.024-4.6 1.04-1.559-.983-2.025-3.044-1.04-4.602.12-.189.266-.375.415-.53.883-.919 1.756-1.777 2.677-2.647.917-.853 1.852-1.753 2.983-2.59 1.091-.807 2.194-1.49 3.313-2.112 1.126-.627 2.232-1.174 3.43-1.707.803-.357 1.744.004 2.101.81.302.678.09 1.456-.467 1.896l-.057.044z" transform="translate(0 -92) translate(0 92) translate(41 49) translate(37 .12)"/>
                        <path fill="#F78127" d="M157.266 100.378c-.1.021.054-.044.13-.083l.308-.154c.216-.104.45-.225.693-.355.47-.238.972-.534 1.458-.805.983-.587 1.968-1.199 2.925-1.874 1.915-1.342 3.77-2.798 5.464-4.418 1.693-1.618 3.314-3.297 4.735-5.134 1.474-1.787 2.726-3.737 3.935-5.685l.115-.185c3.222-5.192 10.044-6.789 15.236-3.568 5.192 3.222 6.789 10.044 3.567 15.236-.221.357-.466.704-.72 1.026-2.075 2.627-4.233 5.178-6.636 7.484-2.35 2.355-4.918 4.468-7.565 6.435-2.651 1.971-5.467 3.696-8.382 5.248-1.456.78-2.963 1.488-4.5 2.162-.787.326-1.551.653-2.381.956-.403.153-.82.305-1.26.455l-.676.227-.864.273c-4.762 1.542-9.87-1.069-11.412-5.829-1.541-4.761 1.068-9.87 5.83-11.412" transform="translate(0 -92) translate(0 92) translate(41 49) translate(37 .12)"/>
                        <path fill="#121516" d="M186.365 63.46s-.595-8.886 6.357-11.666c0 0 1.59-4.171 8.741-.794 0 0 11.107-3.574 13.323 4.453 0 0 11.036 1.688 12.505 9.572 0 0 7.4 8.822.645 13.521 0 0-.54 13.532-17.28 7.428 0 0-13.159 1.736-10.69-8.523 0 0-3.73-1.712-4.689-8.463l-7.12-8.818" transform="translate(0 -92) translate(0 92) translate(41 49) translate(37 .12)"/>
                        <path fill="#F9DABB" d="M112.36 108.347c2.124-1.89 4.297-3.73 6.509-5.53 2.223-1.781 4.47-3.552 6.777-5.247 2.295-1.715 4.642-3.363 7.015-4.996 1.99-1.38 4.597-1.204 6.377.267l.805.667c.77.635 1.76 1.408 2.67 2.092.933.702 1.88 1.388 2.838 2.05 1.91 1.335 3.862 2.577 5.819 3.679 1.952 1.11 3.932 2.097 5.807 2.779 1.85.698 3.696 1.13 4.827 1.105 3.923-.087 7.174 3.02 7.26 6.943.089 3.923-3.02 7.174-6.942 7.26-.172.005-.343.003-.512-.005l-.15-.01c-3.891-.202-6.895-1.28-9.676-2.42-2.776-1.163-5.225-2.54-7.563-3.996-2.343-1.453-4.551-2.997-6.678-4.616-1.065-.808-2.111-1.633-3.142-2.48-1.052-.865.8.814-.316-.193-2.559.87-.75.224-3.288 1.198-2.55.956-5.065 1.998-7.583 3.065-2.508 1.083-5 2.218-7.465 3.417-2.451 1.194-4.93 2.47-7.243 3.799l-.065.038c-.91.52-2.07.208-2.59-.701-.432-.752-.29-1.68.289-2.271 2.039-2.086 4.09-3.99 6.22-5.894z" transform="translate(0 -92) translate(0 92) translate(41 49) translate(37 .12)"/>
                        <path fill="#F9DFC7" d="M191.105 55.665s-10.81 14.19-5.52 20.819c0 0 3.163 4.902 9.111 3.235 2.56.685 8.86-2.146 11.73-17.92 0 0-2.236-7.703-15.32-6.134" transform="translate(0 -92) translate(0 92) translate(41 49) translate(37 .12)"/>
                        <path fill="#121516" d="M190.099 57.083s-1.525 8.713 10.564 7.742c0 0 2.574 4.82 6.59 1.561 0 0-1.991.53 1.574-2.51 0 0-3.87-11.92-17.295-9.43-1.213.225-1.433 2.637-1.433 2.637" transform="translate(0 -92) translate(0 92) translate(41 49) translate(37 .12)"/>
                        <path fill="#F2CFB1" d="M196.093 85.114l11.867 3.126c1.98.522 3.16 2.549 2.64 4.528-.468 1.775-2.148 2.908-3.916 2.746l-12.223-1.102c-2.605-.235-4.527-2.538-4.292-5.143.236-2.606 2.538-4.527 5.143-4.292.26.023.537.075.78.137" transform="translate(0 -92) translate(0 92) translate(41 49) translate(37 .12)"/>
                        <path fill="#F9D6B7" d="M215.114 74.645c.076 1.746-.009 3.318-.214 4.98-.2 1.641-.517 3.296-1.03 4.94-.492 1.56-1.046 3.078-1.656 4.574-.615 1.514-1.253 2.926-2.053 4.456-.852 1.627-2.86 2.256-4.487 1.405-1.627-.85-2.256-2.86-1.406-4.487.058-.11.121-.217.19-.318l.024-.035c.763-1.119 1.564-2.426 2.298-3.673.74-1.266 1.43-2.562 2.055-3.867.576-1.23 1.106-2.542 1.504-3.916.401-1.352.731-2.835.95-4.16l.02-.127c.171-1.044 1.158-1.75 2.201-1.58.912.15 1.566.921 1.604 1.808" transform="translate(0 -92) translate(0 92) translate(41 49) translate(37 .12)"/>
                        <path fill="#56150A" d="M187.731 68.618s2.73 4.984 7.546 4.868c0 0-1.245 5.003-6.36 2.471 0 0-4.707-2.838-1.186-7.339" transform="translate(0 -92) translate(0 92) translate(41 49) translate(37 .12)"/>
                        <path fill="#CC3A27" d="M186.51 72.652c.414 2.09 2.407 3.306 2.407 3.306 1.469.727 2.61.82 3.503.602-.74-3.384-4.544-3.853-5.91-3.908" transform="translate(0 -92) translate(0 92) translate(41 49) translate(37 .12)"/>
                        <path fill="#F9DFC7" d="M186.425 77.49s-1.472 2.062.128 3.07c0 0 2.452 1.931 5.267-.496l-5.395-2.575z" transform="translate(0 -92) translate(0 92) translate(41 49) translate(37 .12)"/>
                        <path stroke="#75CCE0" stroke-linecap="round" stroke-linejoin="round" d="M1.014 87.806S-.82 94.328 4.16 93.973c0 0 8.91-2.997 10.744 3.828" transform="translate(0 -92) translate(0 92) translate(41 49) translate(37 .12)"/>
                        <path fill="#75CCE0" d="M92.057 94.869c1.198 5.578-14.105 13.596-34.18 17.907-20.077 4.313-37.323 3.286-38.52-2.291-1.199-5.578 14.104-13.595 34.18-17.908 20.076-4.312 37.322-3.286 38.52 2.292" transform="translate(0 -92) translate(0 92) translate(41 49) translate(37 .12)"/>
                        <path fill="#75CCE0" d="M92.057 94.869c1.198 5.578-14.105 13.596-34.18 17.907-20.077 4.313-37.323 3.286-38.52-2.291-1.199-5.578 14.104-13.595 34.18-17.908 20.076-4.312 37.322-3.286 38.52 2.292" transform="translate(0 -92) translate(0 92) translate(41 49) translate(37 .12)"/>
                        <path stroke="#75CCE0" stroke-linecap="round" stroke-linejoin="round" d="M19.903 81.682s0 4.915 8.647 5.864c0 0 3.86-1.465 5.69 5.542M36.129 75.021s-2.358 3.883 1.834 4.82c0 0 11.54-2.298 9.893 4.705" transform="translate(0 -92) translate(0 92) translate(41 49) translate(37 .12)"/>
                        <path fill="#C7735E" d="M47.855 101.137s.535 1.337.62 2.527c.027.395.308.717.7.775 1.99.295 7.65.976 10.287-.348.551-.277.821-.909.642-1.498l-.272-.894-11.977-.562z" transform="translate(0 -92) translate(0 92) translate(41 49) translate(37 .12)"/>
                        <path fill="#D18572" d="M70.08 92.717c.04-.474.145-1.223.217-1.862.078-.668.165-1.337.214-2.018.152-1.349.229-2.707.308-4.06.028-1.352.112-2.704.04-4.045.02-.678-.025-1.343-.07-2.01-.035-.67-.073-1.342-.167-1.998-.21-2.677-.821-5.26-1.603-7.837-.212-.637-.441-1.273-.64-1.933l-.816-1.88c-.134-.32-.253-.655-.402-.969l-.496-.919c-.33-.62-.647-1.263-.964-1.926l-.136-.285c-.52-1.089-.06-2.393 1.03-2.913.777-.37 1.664-.24 2.297.257.644.51 1.287 1.037 1.917 1.588l.945.838c.296.297.562.618.846.93l1.646 1.938c.49.687.93 1.412 1.398 2.127 1.779 2.901 3.093 6.128 3.829 9.441.234.825.339 1.662.474 2.498.133.837.272 1.676.323 2.515.129 1.682.185 3.363.097 5.037-.082 1.673-.27 3.334-.573 4.981-.161.82-.337 1.643-.56 2.46-.227.844-.461 1.573-.831 2.558-.842 2.24-3.341 3.374-5.581 2.531-1.855-.696-2.951-2.529-2.796-4.41l.054-.634z" transform="translate(0 -92) translate(0 92) translate(41 49) translate(37 .12)"/>
                        <path fill="#FED173" d="M69.827 63.498L33.186 69.052 29.683 45.944 66.324 40.39z" transform="translate(0 -92) translate(0 92) translate(41 49) translate(37 .12)"/>
                        <path fill="#FECB5F" d="M21.633 43.701L24.291 64.293 33.186 69.052 29.71 45.939z" transform="translate(0 -92) translate(0 92) translate(41 49) translate(37 .12)"/>
                        <path fill="#FBD483" d="M66.351 40.385L29.71 45.939 21.633 43.701 58.274 38.147z" transform="translate(0 -92) translate(0 92) translate(41 49) translate(37 .12)"/>
                        <path fill="#D18572" d="M29.627 108.284c-.156-.096-.352-.226-.465-.31l-.255-.193c-.157-.126-.36-.277-.474-.39-.258-.24-.53-.485-.765-.733-.413-.485-.87-.985-1.186-1.48-.345-.496-.696-.998-.951-1.5-.26-.501-.588-1.008-.771-1.516l-.616-1.527c-.185-.51-.318-1.012-.466-1.522-.324-1.021-.476-2.021-.662-3.024-.618-4.01-.457-7.86-.018-11.591.53-3.706 1.307-7.311 2.366-10.794l.827-2.596c.286-.861.537-1.73.894-2.562.674-1.68 1.313-3.36 2.02-5.012.359-.837 1.328-1.224 2.165-.866.686.294 1.07 1 .988 1.705l-.01.08c-.206 1.754-.481 3.478-.722 5.204-.265 1.72-.378 3.453-.605 5.158-.12.853-.183 1.708-.225 2.562l-.186 2.547c-.09.847-.052 1.689-.083 2.527l-.05 2.505c.1 3.304.345 6.552 1.058 9.477.188.719.338 1.46.607 2.104.127.327.216.68.349.993l.413.908c.29.57.576 1.137.9 1.563.152.258.318.389.46.587.069.07.124.123.18.192.037.048.02.018.03.036l.004.012c-.025-.017-.128-.088-.194-.12 2.092 1.258 2.768 3.974 1.51 6.066-1.26 2.093-3.975 2.769-6.067 1.51" transform="translate(0 -92) translate(0 92) translate(41 49) translate(37 .12)"/>
                        <path fill="#00A0C8" d="M41.101 84.546s-5.636-11.517 8.332-15.438c0 0 12.497-1.225 13.477 7.719 0 0-13.232-.613-21.809 7.719" transform="translate(0 -92) translate(0 92) translate(41 49) translate(37 .12)"/>
                        <path fill="#D18572" d="M62.91 76.827s.872 11.122 1.34 17.446c0 0 .33 6.428-3.665 8.377 0 0-7.88 2.52-12.73-1.513 0 0-3.862-1.744-6.754-16.59 0 0 12.79-8.713 21.809-7.72" transform="translate(0 -92) translate(0 92) translate(41 49) translate(37 .12)"/>
                        <path fill="#121516" d="M45.08 82.647s-.126 4.012 1.127 8.901c0 0 .582.864-1.13 1.416 0 0-2.872-2.62-3.976-8.418l3.978-1.899zM62.91 76.827s-.03 3.136-1.86 3.746c0 0-2.12.358-2.432-1.197 0 0 0 2.324-1.548 2.582 0 0-1.57.373-2.668-1.033 0 0 .43 1.807-2.582 2.152 0 0-2.18.19-2.94-1.84 0 0 6.447-5.84 14.03-4.41" transform="translate(0 -92) translate(0 92) translate(41 49) translate(37 .12)"/>
                        <path fill="#2EBFE3" d="M41.101 84.546s9.975-12.788 23.54-14.144c0 0 3.269-.535 4.741 1.649 0 0 2.423 2.61-6.472 4.776 0 0-3.747-.294-21.809 7.719" transform="translate(0 -92) translate(0 92) translate(41 49) translate(37 .12)"/>
                        <path fill="#56150A" d="M61.538 92.664s-3.729 3.583-9.44 3.162c0 0 2.504 4.244 5.667 3.475 0 0 5.456-.123 3.773-6.637" transform="translate(0 -92) translate(0 92) translate(41 49) translate(37 .12)"/>
                        <path fill="#CC3A27" d="M57.765 99.3s3.099-.074 3.904-2.9c-5.611-.956-7.284 1.981-7.287 1.986.94.714 2.107 1.225 3.383.914" transform="translate(0 -92) translate(0 92) translate(41 49) translate(37 .12)"/>
                        <path fill="#E2A63B" d="M44.477 43.701L45.723 50.416 47.001 48.578 48.6 49.659 49.579 48.209 51.283 49.494 50.313 42.816 44.477 40.239 39.134 41.048z" transform="translate(0 -92) translate(0 92) translate(41 49) translate(37 .12)"/>
                        <path fill="#75CCE0" d="M127.764 41.304c1.2 3.015-2.38 4.477-10.023 7.522-7.644 3.045-13.285 6.668-15.554 4.348-2.913-2.979-9.367-6.947 5.3-13.876 9.076-4.289 19.076-1.009 20.277 2.006" transform="translate(0 -92) translate(0 92) translate(41 49) translate(37 .12)"/>
                        <path fill="#A4B0B3" d="M105.084 50.416V31.15c0-.358-.049-.709-.144-1.053-.953-3.429-6.437-22.237-10.025-14.476-.212.458-.324.965-.328 1.47l-.25 28.237-3.586 1.878V16.532s-.044-5.639 4.397-7.523c0 0 6.466-2.505 9.936 9.348l3.652 10.785c.104.305.157.624.157.946v17.94s.219 3.306-1.286 3.95c-2.08.893-2.523-1.562-2.523-1.562" transform="translate(0 -92) translate(0 92) translate(41 49) translate(37 .12)"/>
                        <path fill="#A4B0B3" d="M121.82 42.508V23.241c0-.357-.049-.709-.145-1.052-.953-3.43-6.436-22.237-10.025-14.477-.212.46-.323.965-.328 1.471l-.249 28.236-3.587 1.88V8.622s-.044-5.638 4.397-7.522c0 0 6.466-2.505 9.936 9.348l3.652 10.785c.104.304.157.624.157.945v17.94s.22 3.306-1.285 3.951c-2.08.892-2.524-1.562-2.524-1.562" transform="translate(0 -92) translate(0 92) translate(41 49) translate(37 .12)"/>
                        <path stroke="#A4B0B3" stroke-linecap="round" stroke-linejoin="round" stroke-width="4" d="M107.486 36.073L123.168 29.552M107.486 45.526L123.168 39.005" transform="translate(0 -92) translate(0 92) translate(41 49) translate(37 .12)"/>
                    </g>
                </g>
            </g>
        </g>
    </g>
</svg>
