<svg xmlns="http://www.w3.org/2000/svg" xmlns:xlink="http://www.w3.org/1999/xlink" width="360" height="308" viewBox="0 0 360 308">
    <defs>
        <path id="jiozlhofua" d="M0 0.835L236.31 0.835 236.31 214.237 0 214.237z"/>
        <path id="s2pa1qsprc" d="M2.061.613L.656.876c-.26.049-.443.149-.542.296-.101.147-.127.354-.079.614L.769 5.69c.035.183.077.326.133.438.063.126.165.216.3.266.13.048.299.052.515.011l1.406-.265c.25-.047.474-.105.667-.175.197-.071.379-.165.541-.28.163-.115.309-.256.435-.419.155-.209.275-.441.355-.684.079-.242.122-.508.129-.792.006-.28-.022-.587-.083-.912-.188-.996-.621-1.696-1.289-2.08-.262-.154-.541-.243-.83-.262-.061-.004-.125-.007-.19-.007-.238 0-.505.028-.797.084zM1.378 1.84l.608-.114c.316-.06.597-.076.83-.05.221.024.422.14.613.355.194.216.34.58.435 1.083.133.71.058 1.246-.224 1.593-.058.075-.133.139-.223.191-.094.055-.188.095-.278.122-.096.028-.234.059-.408.091l-.714.134-.639-3.405z"/>
        <path id="lpgxi0x8oe" d="M3.5.991c-.126.014-.258.112-.391.291L1.115 3.954c-.095.125-.161.234-.205.333-.048.113-.062.23-.037.348.025.114.089.228.199.349l.713.788c.127.139.25.255.367.345.12.091.248.16.379.204.132.044.273.062.418.055.186-.015.367-.063.543-.146.173-.083.346-.203.513-.357.168-.152.337-.343.503-.567.508-.681.747-1.361.707-2.021-.013-.259-.074-.495-.177-.698-.1-.199-.247-.405-.437-.613l-.713-.787c-.118-.132-.236-.198-.351-.198-.012 0-.025 0-.037.002zm-.87 4.282c-.069-.032-.131-.072-.182-.118-.055-.048-.127-.122-.216-.22l-.362-.4 1.74-2.33.309.341c.161.179.282.355.359.525.074.161.086.359.036.607-.049.248-.205.55-.462.895-.363.485-.707.735-1.023.741h-.016c-.061 0-.123-.013-.183-.041z"/>
        <path id="7h5zj1ycsg" d="M2.339.577c-.117.053-.219.189-.303.405L.781 4.215c-.06.152-.096.281-.114.391-.018.126-.001.245.052.355.05.105.142.197.278.285l.882.563c.157.101.304.178.44.23.138.055.277.084.415.089.138.003.278-.02.417-.071.174-.069.337-.172.484-.306.146-.135.283-.306.407-.507.122-.201.237-.439.342-.709.32-.825.379-1.566.177-2.205-.077-.253-.194-.467-.344-.638-.146-.165-.339-.325-.572-.474L2.763.655c-.108-.07-.208-.104-.297-.104-.045 0-.088.009-.127.026zm.229 4.487c-.075-.011-.145-.032-.204-.061-.065-.032-.153-.083-.263-.154l-.448-.285 1.095-2.82.382.243c.199.128.359.265.476.41.111.138.171.33.186.588.015.262-.061.605-.223 1.022-.228.588-.496.937-.798 1.039-.044.015-.09.022-.138.022-.021 0-.043-.001-.065-.004z"/>
    </defs>
    <g fill="none" fill-rule="evenodd">
        <g>
            <g>
                <path d="M0 0H360V308H0z" transform="translate(0 -92) translate(0 92)"/>
                <g>
                    <g>
                        <g transform="translate(0 -92) translate(0 92) translate(62 28) translate(0 .165)">
                            <mask id="6axwv9mrnb" fill="#fff">
                                <use xlink:href="#jiozlhofua"/>
                            </mask>
                            <path fill="#ABEEFF" d="M223.504 119.55c49.822 22.154-57.571 94.687-119.29 94.687C42.494 214.237.189 180.947 0 119.55-.227 44.72 77.106-14.463 135.884 4.359c88.875 28.46 17.56 84.04 87.62 115.192" mask="url(#6axwv9mrnb)"/>
                        </g>
                        <path fill="#E8C5AA" d="M123.94 148.568l-9.97 48.729-12.229 48.188c-.332 1.309-1.662 2.1-2.972 1.769-1.21-.307-1.977-1.468-1.825-2.675l6.125-49.043c.598-8.23 1.088-16.466 1.636-24.687l1.6-24.645c.318-4.915 4.561-8.641 9.475-8.323 4.915.319 8.64 4.562 8.322 9.476-.025.396-.088.833-.162 1.21" transform="translate(0 -92) translate(0 92) translate(62 28) translate(0 .165)"/>
                        <path fill="#EFCCAF" d="M99.762 144.21l1.013 52.573-.085-.645 5.958 53.307c.14 1.262-.768 2.4-2.03 2.54-1.15.128-2.194-.614-2.478-1.7l-13.628-51.88-.085-.645-7.268-52.078c-.713-5.113 2.853-9.836 7.965-10.549 5.114-.714 9.836 2.852 10.55 7.965.05.355.079.761.088 1.112" transform="translate(0 -92) translate(0 92) translate(62 28) translate(0 .165)"/>
                        <path fill="#121516" d="M103.867 33.513s-.388-3.18-4.134-2.534c0 0-10.85 2.584-12.27 16.923 0 0 .128 7.363-1.293 11.626 0 0-3.859 6.907-.888 9.22 0 0 3.243 3.174 10.725.565.816-.285 3.556-.81 4.07-1.505 2.994-4.052 11.244-19.653 3.79-34.295" transform="translate(0 -92) translate(0 92) translate(62 28) translate(0 .165)"/>
                        <path fill="#EFCCAF" d="M93.972 83.358c.057-.019.207-.103.178-.084l-.005.005s-.01.002-.05.036c-.07.06-.118.071-.212.16-.17.14-.346.281-.538.48-.188.168-.38.368-.571.59-.192.21-.387.414-.572.663l-.566.71-.541.776c-.372.498-.697 1.077-1.042 1.624-1.34 2.248-2.497 4.72-3.538 7.262-.5 1.286-.991 2.58-1.451 3.892-.424 1.333-.9 2.64-1.283 3.992-.381 1.355-.8 2.692-1.15 4.061l-1.035 4.11-.012.044c-.534 2.123-2.687 3.41-4.81 2.876-.93-.235-1.702-.783-2.23-1.5-3.462-5.095-6.97-10.188-10.51-15.234-1.771-2.52-3.55-5.039-5.354-7.518-.901-1.239-1.808-2.48-2.724-3.682-.907-1.207-1.857-2.417-2.723-3.406l-.107-.12c-.983-1.122-.87-2.827.25-3.81 1.07-.938 2.679-.87 3.677.11 1.267 1.252 2.297 2.42 3.337 3.615 1.04 1.191 2.043 2.385 3.046 3.583 2.003 2.394 3.963 4.804 5.917 7.22 3.904 4.834 7.755 9.686 11.59 14.58l-7.05 1.418 1.106-4.328c.376-1.44.828-2.874 1.239-4.31.417-1.438.934-2.86 1.398-4.29.505-1.424 1.049-2.842 1.607-4.258 1.168-2.822 2.48-5.62 4.123-8.352.428-.68.824-1.365 1.317-2.033l.71-1.005.793-.99c.253-.33.555-.656.853-.98.288-.324.599-.647.949-.967.319-.317.699-.64 1.095-.956.178-.153.444-.327.664-.485.104-.075.247-.166.407-.26l.229-.134c.047-.03.28-.15.417-.21 1.963-.877 4.264.003 5.14 1.966.876 1.962-.005 4.263-1.968 5.14" transform="translate(0 -92) translate(0 92) translate(62 28) translate(0 .165)"/>
                        <path fill="#017997" d="M87.3 157.916s20.196 10.093 38.829 12.087c0 0-1.442-15.102-1.311-34.852 0 0-27.047-3.16-37.517 22.764" transform="translate(0 -92) translate(0 92) translate(62 28) translate(0 .165)"/>
                        <path fill="#017997" d="M83.335 128.237s-3.326 13.317-10.778 36.196c0 0 14.438 13.604 51.244-14.956 0 0 1.64-2.01 1.016-14.326 0 0-33.348-11.184-41.482-6.914" transform="translate(0 -92) translate(0 92) translate(62 28) translate(0 .165)"/>
                        <path fill="#EFCCAF" d="M122.539 76.337c1.298 2.655 2.317 5.145 3.298 7.771.97 2.603 1.825 5.245 2.573 7.923.76 2.675 1.399 5.39 1.903 8.141.542 2.743.863 5.54 1.129 8.345l-.551-1.665c1.639 2.744 3.453 5.547 5.283 8.26 1.844 2.722 3.748 5.404 5.725 8.023 3.97 5.215 8.214 10.247 13.028 14.498l.036.032c.914.806 1 2.2.193 3.113-.77.874-2.085.987-2.997.29-5.517-4.235-10.27-9.168-14.753-14.277-2.231-2.565-4.382-5.19-6.473-7.863-2.095-2.689-4.106-5.363-6.095-8.224l-.054-.077c-.337-.485-.498-1.04-.498-1.589-.213-2.538-.466-5.083-.935-7.613-.432-2.532-.992-5.053-1.667-7.549-.665-2.497-1.432-4.976-2.307-7.413-.859-2.412-1.859-4.902-2.891-7.082l-.051-.107c-.8-1.69-.079-3.71 1.612-4.51 1.678-.794 3.679-.088 4.492 1.573" transform="translate(0 -92) translate(0 92) translate(62 28) translate(0 .165)"/>
                        <path fill="#F1444D" d="M100.077 67.808s-12.022-2.696-17.999 11.265c0 0-3.14 9.975-6.544 21.32 0 0 5.671 6.927 7.09 10.331 0 0 8.202-18.018 9.681-26.92 0 0-.953 3.387-3.159 12.335 0 0-1.06 11.251-10.42 36.491 0 0 10.436 2.4 14.368 8.223 0 0 5.664 8.853 16.49 5.672 0 0 5.905-4.588 9.565-5.389 0 0 8.487-2.552 8.771-5.388 0 0-8.429-12.384-7.01-32.52 0 0 .893-5.528-1.397-19.14 0 0 2.717 16.251 3.95 23.961 0 0 5.457-2.83 8.86-2.883 0 0-1.79-39.305-20.64-38.61l-11.606 1.252z" transform="translate(0 -92) translate(0 92) translate(62 28) translate(0 .165)"/>
                        <path fill="#F4D6BE" d="M100.092 64.814s-1.52 18.75 5.552 18.607c0 0 7.553 1.689 5.228-20.33l-10.78 1.723z" transform="translate(0 -92) translate(0 92) translate(62 28) translate(0 .165)"/>
                        <path fill="#121516" d="M103.389 32.263s1.389-3.464 5.342-1.37c0 0 6.759 3.416 9.038 11.272 0 0 1.412 6.778 3.812 10.873 0 0 6.214 5.366 2.825 9.885 0 0-4.67 7.42-12.723 3.633 0 0-3.752-1.619-8.294-34.293" transform="translate(0 -92) translate(0 92) translate(62 28) translate(0 .165)"/>
                        <path fill="#F9DFC7" d="M94.718 41.934s-1.357 13.039 2.445 19.83c0 0 2.716 6.791 8.693 5.976 0 0 8.236-.692 8.692-10.051 0 0 1.087-7.334 0-15.755l-2.457-6.937-14.67 1.359-2.703 5.578z" transform="translate(0 -92) translate(0 92) translate(62 28) translate(0 .165)"/>
                        <path fill="#121516" d="M94.024 44.276s1.064 2.369 3.971.2c0 0 1.21-.724 1.483-4.134 0 0 .351 2.992 2.088 4.149 0 0 1.251.703 2.328.005 0 0 1.834-.81 2.214-3.957 0 0 .177 2.57 1.69 3.756 0 0 1.06.793 2.16-.094 0 0 .747-.222.956-4.1 0 0 .038 4.513 1.795 4.608 0 0 .743.604 2.048-.1 0 0 1.478-1.262.233-4.288l-2.893-6.012-17.325 1.962-.748 8.005z" transform="translate(0 -92) translate(0 92) translate(62 28) translate(0 .165)"/>
                        <path fill="#FE6262" d="M92.986 48.322c1.15-.422 3.808-1.054 8.81-.61.5.045.893.456.917.957.098 2.025-.092 6.9-4.142 7.288 0 0-5.309 1.052-6.225-6.584-.053-.452.212-.894.64-1.051" transform="translate(0 -92) translate(0 92) translate(62 28) translate(0 .165)"/>
                        <path fill="#242728" d="M93.991 49.063c.91-.328 2.974-.804 6.814-.463.388.034.706.348.724.736.077 1.572-.065 5.379-3.224 5.682 0 0-4.126.817-4.843-5.111-.044-.366.181-.72.53-.844" transform="translate(0 -92) translate(0 92) translate(62 28) translate(0 .165)"/>
                        <path fill="#FE6262" d="M114.378 46.93c-1.191-.283-3.905-.6-8.82.43-.491.103-.833.557-.8 1.057.14 2.023.902 6.842 4.97 6.752 0 0 5.396.42 5.409-7.27 0-.455-.316-.862-.76-.968" transform="translate(0 -92) translate(0 92) translate(62 28) translate(0 .165)"/>
                        <path fill="#242728" d="M113.468 47.785c-.943-.22-3.048-.45-6.822.34-.381.079-.66.429-.633.817.108 1.569.697 5.333 3.869 5.263 0 0 4.193.328 4.21-5.644 0-.37-.265-.693-.624-.776" transform="translate(0 -92) translate(0 92) translate(62 28) translate(0 .165)"/>
                        <path stroke="#FE6262" d="M102.045 50.913s1.539-1.223 3.599-.387" transform="translate(0 -92) translate(0 92) translate(62 28) translate(0 .165)"/>
                        <path fill="#00A0C8" d="M43.062 101.577s7.316 9.706 23.444 24.137c0 0-11.798 24.587-12.358 52.235 0 0-23.202-14.397-28.922-41.134 0 0 1.565-15.284 17.836-35.238" transform="translate(0 -92) translate(0 92) translate(62 28) translate(0 .165)"/>
                        <path fill="#2EBFE3" d="M54.148 177.949l18.497-9.941s-6.376-18.858-1.498-42.97l-4.642.676s-11.292 19.234-12.357 52.235" transform="translate(0 -92) translate(0 92) translate(62 28) translate(0 .165)"/>
                        <path fill="#017997" d="M71.147 125.039s-17.41-16.141-23.06-25.163c0 0-2.366.711-5.026 1.701 0 0 5.424 11.026 23.444 24.136l4.642-.674z" transform="translate(0 -92) translate(0 92) translate(62 28) translate(0 .165)"/>
                        <path stroke="#00A0C8" stroke-linecap="round" stroke-linejoin="round" d="M49.42 109.057s-2.264-28.579 5.025-30.5c0 0 7.13 1.602 2.532 38.591" transform="translate(0 -92) translate(0 92) translate(62 28) translate(0 .165)"/>
                        <path stroke="#00A0C8" stroke-linecap="round" stroke-linejoin="round" d="M55.456 110.069s-5.402-29.925-1.011-31.512c0 0 10.668 4.913 8.567 39.603" transform="translate(0 -92) translate(0 92) translate(62 28) translate(0 .165)"/>
                        <path stroke="#60CB9A" stroke-linecap="round" stroke-linejoin="round" d="M166.887 169.812s-4.492-28.985-11.782-30.906c0 0-8.44-3.876-6.41 31.921" transform="translate(0 -92) translate(0 92) translate(62 28) translate(0 .165)"/>
                        <path stroke="#60CB9A" stroke-linecap="round" stroke-linejoin="round" d="M164.833 169.98s-5.336-29.487-9.73-31.074c0 0-8.875-3.09-8.561 31.888" transform="translate(0 -92) translate(0 92) translate(62 28) translate(0 .165)"/>
                        <path fill="#FED173" d="M37.392 95.39s3.612 10.354 13.493 27.198c0 0-13.91 18.574-25.011 41.477 0 0-13.771-19.774-13.515-43.313 0 0 7.832-8.926 25.033-25.363" transform="translate(0 -92) translate(0 92) translate(62 28) translate(0 .165)"/>
                        <path fill="#FECB5F" d="M25.874 164.065l15.798-2.921s6.813-17.008 13.388-37.856l-4.174-.7s-12.088 15.069-25.012 41.477" transform="translate(0 -92) translate(0 92) translate(62 28) translate(0 .165)"/>
                        <path fill="#CB982C" d="M55.06 123.288s-10.514-18.667-12.88-27.975c0 0-2.228-.041-4.788.076 0 0 3.266 10.129 13.493 27.199l4.175.7z" transform="translate(0 -92) translate(0 92) translate(62 28) translate(0 .165)"/>
                        <path stroke="#FED173" stroke-linecap="round" d="M40.795 103.569s8.234-25.18 15.027-24.822c0 0 3.38 3.342-10.764 33.856" transform="translate(0 -92) translate(0 92) translate(62 28) translate(0 .165)"/>
                        <path stroke="#FED173" stroke-linecap="round" d="M45.702 106.101S51.61 78.9 55.822 78.747c0 0 5.507 7.161-5.857 36.388" transform="translate(0 -92) translate(0 92) translate(62 28) translate(0 .165)"/>
                        <path fill="#60CB9A" d="M136.528 170.923s29.656 0 39.364-2.383c0 0 10.484 33.372 10.484 43.506 0 0-24.338 6.273-51.72 5.07 0 0 5.142-19 1.872-46.193" transform="translate(0 -92) translate(0 92) translate(62 28) translate(0 .165)"/>
                        <path fill="#4EC08C" d="M134.656 217.116l-2.333-7.404s3.606-20.485 2.333-37.778l1.872-1.01s4.192 20.767-1.872 46.192" transform="translate(0 -92) translate(0 92) translate(62 28) translate(0 .165)"/>
                        <path fill="#FFF" d="M181.864 207.115c.133.71.06 1.245-.225 1.593-.057.074-.13.138-.22.19-.096.055-.19.096-.28.122-.096.028-.234.059-.409.09l-.713.136-.639-3.405.607-.115c.317-.06.598-.076.831-.05.221.025.422.14.613.355.194.216.34.58.435 1.084m.014-2.317c-.262-.154-.54-.243-.83-.262-.283-.02-.615.007-.987.077l-1.405.264c-.26.049-.443.148-.543.296-.1.146-.127.353-.078.613l.733 3.904c.035.183.078.326.134.438.063.127.164.216.3.266.13.048.3.052.516.01l1.405-.264c.25-.046.473-.105.667-.174.197-.072.38-.165.541-.281.163-.114.308-.256.434-.42.157-.21.276-.44.356-.682.08-.242.122-.51.13-.792.005-.28-.023-.587-.084-.913-.188-.995-.62-1.696-1.289-2.08" transform="translate(0 -92) translate(0 92) translate(62 28) translate(0 .165)"/>
                    </g>
                    <g transform="translate(0 -92) translate(0 92) translate(62 28) translate(178 204.165)">
                        <mask id="clqbrs241d" fill="#fff">
                            <use xlink:href="#s2pa1qsprc"/>
                        </mask>
                        <path fill="#FFF" d="M-0.43 0.801L4.868 -0.195 6.009 5.877 0.712 6.873z" mask="url(#clqbrs241d)"/>
                    </g>
                    <path fill="#FFF" d="M26.852 155.738c-.363.485-.707.735-1.023.74-.066.004-.133-.01-.2-.04-.069-.032-.13-.071-.18-.117-.056-.05-.129-.123-.216-.221l-.363-.4 1.74-2.33.309.342c.162.177.282.354.36.524.073.16.084.359.035.606-.05.25-.204.55-.462.896m1.363-1.287c-.014-.26-.073-.495-.177-.7-.1-.198-.247-.404-.436-.612l-.713-.787c-.133-.146-.264-.212-.39-.196-.125.015-.256.112-.39.29l-1.995 2.673c-.094.125-.16.234-.204.333-.049.113-.061.23-.038.348.026.114.09.228.2.35l.713.787c.128.14.25.256.367.346.12.09.247.159.38.203.131.044.271.063.418.055.184-.014.367-.063.541-.146.174-.083.346-.203.515-.357.166-.153.335-.343.502-.567.509-.68.747-1.361.707-2.02" transform="translate(0 -92) translate(0 92) translate(62 28)"/>
                    <g transform="translate(0 -92) translate(0 92) translate(62 28) translate(23 151.165)">
                        <mask id="s1qek592tf" fill="#fff">
                            <use xlink:href="#lpgxi0x8oe"/>
                        </mask>
                        <path fill="#FFF" d="M3.502 0.422L6.19 3.39 3.086 7.545 0.398 4.577z" mask="url(#s1qek592tf)"/>
                    </g>
                    <path fill="#FFF" d="M51.57 171.172c-.229.588-.497.937-.8 1.038-.063.023-.13.028-.202.02-.075-.012-.145-.033-.204-.063-.066-.03-.153-.083-.263-.153l-.448-.285 1.095-2.82.382.242c.2.128.36.266.476.411.11.137.171.33.186.588.014.261-.06.605-.223 1.022m.991-1.678c-.077-.253-.193-.467-.344-.636-.145-.166-.338-.326-.572-.475l-.882-.564c-.163-.104-.305-.129-.423-.077-.118.053-.219.19-.303.405l-1.255 3.233c-.06.152-.097.28-.113.391-.02.126-.002.245.05.355.051.105.143.197.28.284l.881.564c.157.1.304.177.44.23.138.055.277.084.415.088.138.004.277-.019.416-.07.175-.07.338-.173.484-.307.147-.134.284-.305.408-.507.122-.2.237-.438.341-.709.321-.824.38-1.566.177-2.205" transform="translate(0 -92) translate(0 92) translate(62 28)"/>
                    <g transform="translate(0 -92) translate(0 92) translate(62 28) translate(48 167.165)">
                        <mask id="um7g5t8alh" fill="#fff">
                            <use xlink:href="#7h5zj1ycsg"/>
                        </mask>
                        <path fill="#FFF" d="M2.199 0.016L5.524 2.14 3.572 7.169 0.247 5.045z" mask="url(#um7g5t8alh)"/>
                    </g>
                    <g>
                        <path fill="#F1444D" d="M.936 53.253c-.747.848.42 2.534 3.122 2.446 0 0 4.353-.735 2.992-2.64-.538-.753-1.115.736-3.23 1.066-1.892.295-2.294-1.54-2.883-.872" transform="translate(0 -92) translate(0 92) translate(62 28) translate(101 6.165)"/>
                        <path fill="#FFE6B1" d="M59.51 50.016c9.5 0 17.908-4.653 23.086-11.799C78.555 23.752 68.573 10.282 40.535.267c-5.84 5.217-9.521 12.804-9.521 21.253 0 15.738 12.758 28.496 28.496 28.496" transform="translate(0 -92) translate(0 92) translate(62 28) translate(101 6.165)"/>
                    </g>
                </g>
            </g>
        </g>
    </g>
</svg>
