<svg xmlns="http://www.w3.org/2000/svg" xmlns:xlink="http://www.w3.org/1999/xlink" width="360" height="308" viewBox="0 0 360 308">
    <defs>
        <path id="kuswh50o5a" d="M7.541 5.003c-1.099 1.489-1.77 2.724-2.014 3.705-.349 1.395-.605 3.897-.77 7.507.087.389.087.756.001 1.102-.087.346-.259.671-.519.973C2.168 23.652.959 27.026.615 28.409c-.323 1.296.036 2.44 1.079 3.433.128.122.286.21.457.257l3.914.976 3.892.971c.18.045.368.042.546-.007 1.378-.384 2.23-1.218 2.558-2.501l.02-.079c.345-1.42.857-4.948 1.536-10.581-.087-.39-.087-.757-.001-1.103.087-.345.259-.67.519-.973 1.539-3.253 2.484-5.574 2.838-6.963l.016-.066c.238-.971.222-2.362-.047-4.173-.231-1.556-.324-3.129-.278-4.701l-6.237-1.556L9.991.985c-.698 1.409-1.517 2.752-2.45 4.018z"/>
        <path id="jko97nzl4c" d="M11.388.845l-.934 2.153C9.667 4.767 8.69 6.445 7.541 8.003c-1.099 1.489-1.77 2.724-2.014 3.705-.349 1.395-.605 3.897-.77 7.507.087.389.087.756.001 1.102-.087.346-.259.671-.519.973C2.168 26.652.959 30.026.615 31.409c-.323 1.296.036 2.44 1.079 3.433.128.122.286.21.457.257l3.914.976 3.892.971c.18.045.368.042.546-.007 1.387-.387 2.241-1.228 2.564-2.525.346-1.383.862-4.929 1.55-10.636-.087-.39-.087-.757-.001-1.103.087-.345.259-.67.519-.973 1.538-3.252 2.484-5.573 2.838-6.961l.017-.07c.236-.971.22-2.362-.048-4.171-.296-1.996-.365-4.02-.205-6.033l.167-2.098c.041-.52-.3-.995-.808-1.121L12.628.234c-.087-.022-.174-.032-.259-.032-.418 0-.809.246-.981.643z"/>
        <path id="bxy42g9gde" d="M11.388.845l-.934 2.153C9.667 4.767 8.69 6.445 7.541 8.003c-1.099 1.489-1.77 2.724-2.014 3.705-.349 1.395-.605 3.897-.77 7.507.087.389.087.756.001 1.102-.087.346-.259.671-.519.973C2.168 26.652.959 30.026.615 31.409c-.323 1.296.036 2.44 1.079 3.433.128.122.286.21.457.257l3.914.976 3.892.971c.18.045.368.042.546-.007 1.387-.387 2.241-1.228 2.564-2.525.346-1.383.862-4.929 1.55-10.636-.087-.39-.087-.757-.001-1.103.087-.345.259-.67.519-.973 1.538-3.252 2.484-5.573 2.838-6.961l.017-.07c.236-.971.22-2.362-.048-4.171-.296-1.996-.365-4.02-.205-6.033l.167-2.098c.041-.52-.3-.995-.808-1.121L12.628.234c-.087-.022-.174-.032-.259-.032-.418 0-.809.246-.981.643z"/>
        <path id="98y7kys5ug" d="M11.608.52c-.091.092-.166.201-.22.325l-.934 2.153C9.667 4.767 8.69 6.445 7.541 8.003c-1.099 1.489-1.77 2.724-2.014 3.705-.349 1.395-.605 3.897-.77 7.507.043.194.065.383.065.567 0 .184-.022.363-.064.535-.087.346-.259.671-.519.973C2.168 26.652.959 30.026.615 31.409c-.076.304-.115.599-.115.886-.002.938.395 1.787 1.194 2.547.127.122.286.211.458.257l1.009.252 5.545 1.383 1.251.312c.048.011.097.02.145.026.038.003.076.006.114.006l.018-.001c.041 0 .084-.004.124-.009.049-.006.097-.016.145-.029 1.387-.387 2.241-1.228 2.564-2.525.346-1.383.862-4.929 1.55-10.636-.043-.195-.065-.385-.065-.568 0-.184.021-.362.064-.535.087-.345.259-.67.519-.973 1.524-3.22 2.466-5.528 2.828-6.921l.02-.081.009-.038c.109-.448.163-.987.164-1.614.001-.729-.071-1.579-.214-2.548-.194-1.309-.29-2.631-.289-3.954.001-.694.029-1.386.084-2.079l.167-2.098.004-.073c.005-.49-.327-.927-.812-1.048L12.628.234c-.087-.022-.174-.032-.259-.032-.288 0-.562.116-.761.318"/>
        <path id="87lrvij27i" d="M11.608.52c-.091.092-.166.201-.22.325l-.934 2.153C9.667 4.767 8.69 6.445 7.541 8.003c-1.099 1.489-1.77 2.724-2.014 3.705-.349 1.395-.605 3.897-.77 7.507.043.194.065.383.065.567 0 .184-.022.363-.064.535-.087.346-.259.671-.519.973C2.168 26.652.959 30.026.615 31.409c-.076.304-.115.599-.115.886-.002.938.395 1.787 1.194 2.547.127.122.286.211.458.257l1.009.252 5.545 1.383 1.251.312c.048.011.097.02.145.026.038.003.076.006.114.006l.018-.001c.041 0 .084-.004.124-.009.049-.006.097-.016.145-.029 1.387-.387 2.241-1.228 2.564-2.525.346-1.383.862-4.929 1.55-10.636-.043-.195-.065-.385-.065-.568 0-.184.021-.362.064-.535.087-.345.259-.67.519-.973 1.524-3.22 2.466-5.528 2.828-6.921l.02-.081.009-.038c.109-.448.163-.987.164-1.614.001-.729-.071-1.579-.214-2.548-.194-1.309-.29-2.631-.289-3.954.001-.694.029-1.386.084-2.079l.167-2.098.004-.073c.005-.49-.327-.927-.812-1.048L12.628.234c-.087-.022-.174-.032-.259-.032-.288 0-.562.116-.761.318z"/>
        <path id="73hpti24ok" d="M1.454 1.998c-.297.668-.621 1.323-.972 1.963l8.173 2.037c-.01-.811.017-1.622.082-2.431l.153-1.919L2.316.009l-.862 1.989z"/>
        <path id="aqjm47hi0m" d="M1.488 1.744L.971 3.82c-.143.573.206 1.154.779 1.297L7.457 6.54c.573.143 1.154-.206 1.297-.779l.518-2.076c.142-.573-.207-1.153-.78-1.296L2.784.965C2.698.943 2.612.934 2.526.934c-.48 0-.917.324-1.038.81z"/>
        <path id="awsvrop3jo" d="M.256 1.053c-.071.287.102.578.39.649.286.071.575-.104.648-.39.071-.286-.103-.577-.389-.648C.861.654.817.648.774.648c-.24 0-.458.163-.518.405z"/>
        <path id="lla6flnixq" d="M.518.426c-.071.286.102.576.389.648.287.071.576-.103.648-.389.072-.287-.103-.577-.389-.648C1.122.026 1.078.02 1.035.02.796.02.578.183.518.426z"/>
        <path id="vkbeglzrus" d="M.663.612c-.072.286.103.577.39.648.286.071.576-.103.648-.39.072-.286-.103-.577-.39-.648C1.268.211 1.224.206 1.18.206.941.206.723.369.663.612z"/>
        <path id="mrpq9ovvgu" d="M1.32.559c-.306 0-.554.247-.554.554v.341c0 .462.287.876.719 1.038l3.718 1.394V.559H1.32z"/>
        <path id="i7kikvdaqw" d="M.044.559v3.327l3.717-1.394c.433-.162.721-.576.721-1.038v-.341c0-.307-.249-.554-.555-.554H.044z"/>
        <path id="dj6fu4zecy" d="M.976 5.231H30.27C28.138 2.645 22.385.793 15.623.793 8.861.793 3.108 2.645.976 5.231z"/>
        <path id="umjad91brA" d="M.093.449l2 17.993c.124 1.124 1.074 1.974 2.205 1.974h22.651c1.131 0 2.08-.85 2.205-1.974L31.153.449H.093z"/>
        <path id="io9oz61gsC" d="M1.405.323C.792.323.296.82.296 1.433v9.983h6.655V1.433c0-.613-.496-1.11-1.11-1.11H1.405z"/>
        <path id="2cwwdhir0E" d="M.96.542c-.306 0-.555.248-.555.555 0 .306.249.554.555.554h3.327c.307 0 .554-.248.554-.554 0-.307-.247-.555-.554-.555H.96z"/>
        <path id="hgvufa89dG" d="M.96.76c-.306 0-.555.248-.555.555 0 .306.249.555.555.555h3.327c.307 0 .554-.249.554-.555 0-.307-.247-.555-.554-.555H.96z"/>
        <path id="baepd0jiuI" d="M1.068.088C.763.088.515.337.515.644c0 .304.248.554.553.554h1.11c.306 0 .555-.25.555-.554 0-.307-.249-.556-.555-.556h-1.11z"/>
        <path id="rcjoiag1bK" d="M0.515 0.574L2.733 0.574 2.733 2.793 0.515 2.793z"/>
        <path id="ntfmxe716M" d="M1.296.356C.683.356.187.852.187 1.465s.496 1.11 1.109 1.11h6.655c.614 0 1.11-.497 1.11-1.11 0-.613-.496-1.109-1.11-1.109H1.296z"/>
        <path id="m7zlgjb1sO" d="M.53.416c0 .613.497 1.109 1.11 1.109h3.327c.613 0 1.11-.496 1.11-1.109H.53z"/>
        <path id="xzu3i3f84Q" d="M.17.416c0 .613.497 1.109 1.109 1.109h3.328c.612 0 1.11-.496 1.11-1.109H.17z"/>
        <path id="j4ksr7uv3S" d="M1.985.23C1.371.23.875.727.875 1.339c0 .613.496 1.11 1.11 1.11h33.278c.612 0 1.109-.497 1.109-1.11 0-.612-.497-1.109-1.109-1.109H1.985z"/>
        <path id="3jwzq04dsU" d="M9.173.616c-1.17 1.117 2.047 6.544 2.768 10.142-.956.627-2.864-1.718-4.819-4.063-2.005-2.405-4.06-4.81-5.188-4.009-2.079 1.785 9.613 10.481 10.088 12.817-1.795.278-3.817-.622-5.65-1.521-2.234-1.094-4.188-2.189-5.11-1.16-3.054.6 10.63 6.593 17.652 7.484 1.277.209 2.218-2.136 1.964-4.666C12.524 12.868 11.404.552 9.424.552c-.082 0-.165.02-.251.064z"/>
        <path id="2xl9o93zfW" d="M.404 5.806c-.606 3.711 1.91 7.211 5.622 7.818 3.711.607 7.211-1.91 7.818-5.621.608-3.711-1.91-7.211-5.62-7.818C7.851.124 7.481.094 7.116.094 3.839.094.951 2.467.404 5.806z"/>
        <path id="b0q14p6o9Y" d="M.254 6.429c-.607 3.712 1.91 7.212 5.621 7.819 3.711.607 7.212-1.909 7.819-5.621.607-3.711-1.91-7.212-5.622-7.818-.371-.061-.741-.09-1.107-.09C3.688.718.8 3.09.254 6.429z"/>
        <path id="8h9a05f8laa" d="M.564 6.5c-.607 3.712 1.909 7.212 5.621 7.818 3.711.607 7.212-1.909 7.819-5.62.607-3.712-1.911-7.212-5.621-7.819-.372-.061-.742-.09-1.107-.09C3.999.789 1.11 3.16.564 6.5z"/>
        <path id="wexngey2eac" d="M9.746 2.062c-.169.173-.33.359-.477.559L1.012 13.814c-.325.44-.497.97-.496 1.51 0 .124.01.25.029.374.008.054.018.106.029.159.245 1.134 1.227 1.945 2.361 1.996l.114.002h.008c.11 0 .22-.008.331-.022l.042-.006 22.996-3.472c.665-.1 1.263-.46 1.663-1.002.331-.449.492-.971.496-1.49.003-.782-.353-1.556-1.031-2.055L16.361 1.55C15.454.882 14.4.56 13.354.56c-1.324 0-2.634.517-3.608 1.502"/>
        <path id="xg0rbgqeiae" d="M9.269 2.621L1.012 13.814c-.399.541-.568 1.219-.467 1.884.209 1.384 1.501 2.337 2.885 2.129l22.996-3.472c.665-.1 1.263-.46 1.663-1.002.831-1.127.592-2.715-.535-3.545L16.361 1.55C15.454.882 14.4.56 13.354.56c-1.555 0-3.091.713-4.085 2.061z"/>
        <path id="m8yjlnw9qag" d="M33.767.968C27.785 2.559 22.649 3.679 18.36 4.326c-4.287.647-9.525 1.094-15.711 1.341-.749.03-1.442.397-1.887 1-.808 1.095-.575 2.639.522 3.447l2.649 17.55-1.449 1.379c-.473.451-.754 1.068-.784 1.721-.063 1.4 1.019 2.585 2.418 2.649 6.512.296 12.68.004 18.501-.875 5.823-.879 11.801-2.421 17.935-4.626.615-.221 1.121-.672 1.413-1.257.623-1.255.111-2.777-1.143-3.399l-1.789-.891-2.649-17.551c.443-.602.591-1.373.398-2.096-.293-1.104-1.291-1.833-2.382-1.833-.21 0-.422.027-.635.083z"/>
        <path id="venlo4cq8ai" d="M7.591.479C3.437 1.106.408 3.859.826 6.629c.419 2.769 4.126 4.506 8.279 3.88 4.154-.629 7.183-3.382 6.765-6.151C15.509 1.971 12.706.351 9.28.35c-.55 0-1.115.043-1.689.129z"/>
        <path id="hlzrkebfpak" d="M.568.833c-.346.053-.585.375-.532.721.053.347.375.585.722.532.346-.052.584-.374.532-.721C1.242 1.051.972.826.664.826.633.826.6.829.568.833z"/>
        <path id="mdiok47wtam" d="M1.325.847C.979.9.741 1.224.793 1.569c.053.347.376.585.722.532.346-.051.584-.375.532-.722C1.999 1.066 1.729.84 1.42.84c-.031 0-.063.003-.095.007z"/>
        <path id="n3xy0uagxao" d="M1.454.961c-.345.052-.584.376-.532.722.053.347.375.585.721.533.346-.052.584-.376.533-.722-.048-.314-.318-.54-.626-.54-.032 0-.063.003-.096.007z"/>
        <path id="jpffzzzqiaq" d="M1.34.091C.994.143.756.466.808.812c.052.346.374.584.722.532.345-.052.583-.375.532-.721-.049-.314-.318-.54-.627-.54-.031 0-.063.003-.095.008z"/>
    </defs>
    <g fill="none" fill-rule="evenodd">
        <g>
            <g>
                <path d="M0 0H360V308H0z" transform="translate(0 -92) translate(0 92)"/>
                <g>
                    <g>
                        <path fill="#1A1D1E" d="M140.877 194.477H10.893c-5.82 0-10.537-4.718-10.537-10.537l40-93.157c2.049-5.904 4.717-10.537 10.537-10.537h49.984c5.819 0 8.968 5.048 10.537 10.537l40 93.157c0 5.82-4.718 10.537-10.537 10.537" transform="translate(0 -92) translate(0 92) translate(53 56) translate(57 .38)"/>
                        <path fill="#ABEEFF" d="M50.177 86.328h52.409c2.17 0 4.125 1.314 4.945 3.325l32.144 78.939c1.43 3.51-1.153 7.35-4.943 7.35h-116.7c-3.791 0-6.374-3.84-4.944-7.35l32.145-78.94c.819-2.01 2.773-3.324 4.944-3.324" transform="translate(0 -92) translate(0 92) translate(53 56) translate(57 .38)"/>
                        <path fill="#F78127" d="M103.612 122.505c4.428 18.686-14.776 25.897-27.826 25.825-13.31-.074-34.236-7.606-29.016-26.224 3.307-11.79 15.937-18.775 27.73-18.73 12.017.046 26.058 6.241 29.112 19.13" transform="translate(0 -92) translate(0 92) translate(53 56) translate(57 .38)"/>
                        <path fill="#FFF" d="M81.786 125.124c.108-.953.158-1.423.251-2.349l3.707.03c-.226.924-.345 1.393-.599 2.345l-3.359-.026m-16.094-2.487c1.275.01 1.92.016 3.214.028.035.923.054 1.393.093 2.347-1.31-.011-1.963-.017-3.253-.03-.024-.953-.035-1.421-.054-2.346m22.655 9.138c.127.716-.563 1.303-1.557 1.294-.994-.007-1.895-.604-1.992-1.32-.099-.718.617-1.285 1.581-1.278.964.007 1.84.588 1.968 1.304m-21.796-.18c-.07.716-.96 1.303-1.972 1.294-1.012-.007-1.738-.608-1.635-1.325.103-.716.971-1.284 1.95-1.275.978.007 1.727.59 1.657 1.306m2.134-15.485l.063 2.059-3.127-.025c-.009-.837-.013-1.249-.018-2.056l3.082.022m18.061 2.192l-4.318-.03c.061-.84.088-1.252.137-2.066 1.853.014 2.772.019 4.576.029-.147.813-.226 1.227-.395 2.067m-4.409 1.15l4.166.03c-.175.823-.268 1.24-.464 2.088l-3.883-.03c.08-.847.115-1.266.181-2.088m-5.909 2.042c.006-.849.01-1.265.012-2.087l4.242.032c-.089.823-.137 1.24-.24 2.087l-4.014-.032m-.012 1.236c1.555.014 2.331.02 3.873.032-.118.925-.18 1.395-.315 2.347l-3.59-.03c.014-.954.021-1.425.032-2.35m-1.747-.013c-.036.923-.055 1.392-.097 2.346l-3.772-.034c-.066-.954-.097-1.424-.158-2.347 1.606.012 2.414.02 4.027.034m1.767-6.55c1.832.013 2.748.02 4.563.031-.07.813-.11 1.226-.194 2.066l-4.363-.033c0-.84 0-1.251-.006-2.063m-1.617 2.05l-4.459-.035c-.05-.838-.074-1.25-.12-2.06l4.632.033c-.019.811-.029 1.223-.053 2.061m-4.387 1.142c1.734.016 2.608.023 4.352.037-.025.822-.039 1.239-.069 2.085-1.664-.013-2.497-.02-4.153-.035-.053-.846-.08-1.264-.13-2.087m-4.796-.038l3.151.026c.027.82.042 1.238.073 2.085l-3.192-.029c-.015-.845-.022-1.262-.032-2.083m21.128 6.69c1.062-4.35 1.431-6.388 2.001-10.159.026-.17-.063-.356-.239-.5-.176-.145-.417-.231-.65-.233-8.625-.043-13.492-.081-22.277-.14l-.002-1.075c0-.275-.284-.484-.654-.486l-5.557-.032c-.105.425-.158.64-.263 1.075 1.954.014 2.958.02 4.994.033-.017.65-.024.98-.038 1.648l-.023.002c-.083 4.218-.103 6.528-.073 11.508h.003c.002.55.004.828.008 1.387-1.512.315-2.734 1.304-2.937 2.513-.247 1.482 1.223 2.74 3.35 2.757 2.126.016 3.99-1.212 4.097-2.695.034-.47-.108-.912-.375-1.295 5.983.053 9.135.08 15.055.13-.248.377-.37.816-.316 1.287.167 1.482 2.053 2.737 4.142 2.75 2.088.017 3.48-1.214 3.184-2.695-.28-1.405-1.902-2.537-3.737-2.662l-.002-.012c-7.969-.061-12.454-.105-20.594-.177-.036-1.08-.052-1.61-.08-2.658 7.98.072 12.375.115 20.226.176.385.004.691-.178.757-.447" transform="translate(0 -92) translate(0 92) translate(53 56) translate(57 .38)"/>
                        <path fill="#EDF3F5" d="M81.47 95.082s-5.56-30.506 2.759-40.384c0 0-9.195-28.625 12.637-31.051 0 0-1.805-24.912 20.58-19.135 0 0 18.26-12.97 27.693 5.466 0 0 12.037-.487 6.234 15.47 0 0 12.202 10.685-3.662 17.973 0 0 8.147 22.724-13.438 20.022 0 0-9.715 9.563-22.15 2.702 0 0-13.29 10.291-18.384-.881 0 0-13.307 21.5-12.268 29.818" transform="translate(0 -92) translate(0 92) translate(53 56) translate(57 .38)"/>
                    </g>
                    <g transform="translate(0 -92) translate(0 92) translate(53 56) translate(165 18.38)">
                        <mask id="rlin8uc0sb" fill="#fff">
                            <use xlink:href="#kuswh50o5a"/>
                        </mask>
                        <path fill="#ADCDED" d="M4.74 -10.245L27.571 -4.553 16.186 41.109 -6.645 35.417z" mask="url(#rlin8uc0sb)"/>
                    </g>
                    <g>
                        <g transform="translate(0 -92) translate(0 92) translate(53 56) translate(165 15.38)">
                            <mask id="v8wceqq30d" fill="#fff">
                                <use xlink:href="#jko97nzl4c"/>
                            </mask>
                            <path stroke="#DBDFF6" d="M12.628.233l4.469 1.114c.507.127.848.601.807 1.122l-.167 2.098c-.16 2.012-.09 4.036.205 6.033.27 1.825.285 3.224.041 4.196-.344 1.384-1.293 3.72-2.848 7.005-.26.303-.432.628-.519.974-.086.346-.086.713.001 1.102-.688 5.708-1.205 9.253-1.55 10.637-.323 1.296-1.177 2.137-2.564 2.524-.179.05-.366.052-.546.007l-7.785-1.94c-.18-.046-.345-.137-.479-.264C.65 33.85.291 32.705.614 31.408c.345-1.383 1.554-4.756 3.625-10.118.26-.303.432-.628.519-.974.086-.346.086-.713-.001-1.102.165-3.61.422-6.112.769-7.507.245-.98.916-2.216 2.015-3.705 1.149-1.558 2.126-3.235 2.913-5.004l.934-2.153c.209-.48.733-.738 1.24-.612z" mask="url(#v8wceqq30d)"/>
                        </g>
                        <g transform="translate(0 -92) translate(0 92) translate(53 56) translate(165 15.38)">
                            <mask id="eyuwu9d22f" fill="#fff">
                                <use xlink:href="#bxy42g9gde"/>
                            </mask>
                            <path stroke="#DBDFF6" d="M12.628.233l4.469 1.114c.507.127.848.601.807 1.122l-.167 2.098c-.16 2.012-.09 4.036.205 6.033.27 1.825.285 3.224.041 4.196-.344 1.384-1.293 3.72-2.848 7.005-.26.303-.432.628-.519.974-.086.346-.086.713.001 1.102-.688 5.708-1.205 9.253-1.55 10.637-.323 1.296-1.177 2.137-2.564 2.524-.179.05-.366.052-.546.007l-7.785-1.94c-.18-.046-.345-.137-.479-.264C.65 33.85.291 32.705.614 31.408c.345-1.383 1.554-4.756 3.625-10.118.26-.303.432-.628.519-.974.086-.346.086-.713-.001-1.102.165-3.61.422-6.112.769-7.507.245-.98.916-2.216 2.015-3.705 1.149-1.558 2.126-3.235 2.913-5.004l.934-2.153c.209-.48.733-.738 1.24-.612z" mask="url(#eyuwu9d22f)"/>
                        </g>
                    </g>
                    <g>
                        <g transform="translate(0 -92) translate(0 92) translate(53 56) translate(165 15.38)">
                            <mask id="kr5rot7xmh" fill="#fff">
                                <use xlink:href="#98y7kys5ug"/>
                            </mask>
                            <path fill="#FA8924" d="M12.628.233l4.469 1.114c.507.127.848.601.807 1.122l-.167 2.098c-.16 2.012-.09 4.036.205 6.033.27 1.825.285 3.224.041 4.196-.344 1.384-1.293 3.72-2.848 7.005-.26.303-.432.628-.519.974-.086.346-.086.713.001 1.102-.688 5.708-1.205 9.253-1.55 10.637-.323 1.296-1.177 2.137-2.564 2.524-.179.05-.366.052-.546.007l-7.785-1.94c-.18-.046-.345-.137-.479-.264C.65 33.85.291 32.705.614 31.408c.345-1.383 1.554-4.756 3.625-10.118.26-.303.432-.628.519-.974.086-.346.086-.713-.001-1.102.165-3.61.422-6.112.769-7.507.245-.98.916-2.216 2.015-3.705 1.149-1.558 2.126-3.235 2.913-5.004l.934-2.153c.209-.48.733-.738 1.24-.612" mask="url(#kr5rot7xmh)"/>
                        </g>
                        <g transform="translate(0 -92) translate(0 92) translate(53 56) translate(165 15.38)">
                            <mask id="rjwg68l76j" fill="#fff">
                                <use xlink:href="#87lrvij27i"/>
                            </mask>
                            <path stroke="#DBDFF6" d="M12.628.233l4.469 1.114c.507.127.848.601.807 1.122l-.167 2.098c-.16 2.012-.09 4.036.205 6.033.27 1.825.285 3.224.041 4.196-.344 1.384-1.293 3.72-2.848 7.005-.26.303-.432.628-.519.974-.086.346-.086.713.001 1.102-.688 5.708-1.205 9.253-1.55 10.637-.323 1.296-1.177 2.137-2.564 2.524-.179.05-.366.052-.546.007l-7.785-1.94c-.18-.046-.345-.137-.479-.264C.65 33.85.291 32.705.614 31.408c.345-1.383 1.554-4.756 3.625-10.118.26-.303.432-.628.519-.974.086-.346.086-.713-.001-1.102.165-3.61.422-6.112.769-7.507.245-.98.916-2.216 2.015-3.705 1.149-1.558 2.126-3.235 2.913-5.004l.934-2.153c.209-.48.733-.738 1.24-.612z" mask="url(#rjwg68l76j)"/>
                        </g>
                    </g>
                    <g transform="translate(0 -92) translate(0 92) translate(53 56) translate(174 16.38)">
                        <mask id="1bdygn597l" fill="#fff">
                            <use xlink:href="#73hpti24ok"/>
                        </mask>
                        <path fill="#FBF4D4" d="M-5.556 -7.466L19.35 -1.256 15.727 13.273 -9.179 7.063z" mask="url(#1bdygn597l)"/>
                    </g>
                    <g transform="translate(0 -92) translate(0 92) translate(53 56) translate(175 11.38)">
                        <mask id="zylqwlh88n" fill="#fff">
                            <use xlink:href="#aqjm47hi0m"/>
                        </mask>
                        <path fill="#E25220" d="M-2.148 -5.776L16.013 -1.248 12.391 13.281 -5.77 8.753z" mask="url(#zylqwlh88n)"/>
                    </g>
                    <g transform="translate(0 -92) translate(0 92) translate(53 56) translate(180 22.38)">
                        <mask id="m2vxqus9lp" fill="#fff">
                            <use xlink:href="#awsvrop3jo"/>
                        </mask>
                        <path fill="#F9F9F9" d="M-3.51 -5.948L7.905 -3.101 5.059 8.314 -6.357 5.468z" mask="url(#m2vxqus9lp)"/>
                    </g>
                    <g transform="translate(0 -92) translate(0 92) translate(53 56) translate(180 26.38)">
                        <mask id="3nl9rtz22r" fill="#fff">
                            <use xlink:href="#lla6flnixq"/>
                        </mask>
                        <path fill="#F9F9F9" d="M-3.248 -6.576L8.167 -3.729 5.32 7.686 -6.095 4.84z" mask="url(#3nl9rtz22r)"/>
                    </g>
                    <g transform="translate(0 -92) translate(0 92) translate(53 56) translate(177 24.38)">
                        <mask id="3ltfqefhpt" fill="#fff">
                            <use xlink:href="#vkbeglzrus"/>
                        </mask>
                        <path fill="#F9F9F9" d="M-3.103 -6.39L8.313 -3.544 5.465 7.872 -5.949 5.026z" mask="url(#3ltfqefhpt)"/>
                    </g>
                    <g>
                        <path fill="#E5E9EA" d="M.716 58.5s-3.16-13.175 5.916-17.237c0 0-5.024-15.263 2.788-16.927 0 0-1.094-16.81 13.31-14.195 0 0 7.37-15.418 19.534-6.646 0 0 16.432-9.535 23.468 8.497 0 0 15.639 3.415 11.255 17.841 0 0 9.122 16.166-9.386 17.622 0 0-3.937 16.148-17.655 11.946 0 0-14.17 8.676-19.831-2.9 0 0-14.367 5.899-17.115-7.008 0 0-9.25 1.485-12.284 9.006" transform="translate(0 -92) translate(0 92) translate(53 56) translate(149 49.38)"/>
                        <path fill="#EDF3F5" d="M7.846 108.039S9.37 95.549 15.5 87.746c0 0-8.222-18.624 15.196-24.184 0 0 4.569-25.894 29.549-13.404 0 0 22.543-11.881 30.16 8.835 0 0 19.214 2.335 12.795 18.582 0 0 9.802 18.379-10.968 21.63 0 0-6.145 22.394-25.894 9.748 0 0-14.318 10.357-24.676-3.046 0 0-15.84 5.179-18.887-4.57 0 0-15-1.586-14.928 6.702" transform="translate(0 -92) translate(0 92) translate(53 56) translate(149 49.38)"/>
                    </g>
                    <g transform="translate(0 -92) translate(0 92) translate(53 56) translate(189 124.38)">
                        <mask id="p21xkczvbv" fill="#fff">
                            <use xlink:href="#mrpq9ovvgu"/>
                        </mask>
                        <path fill="#705555" d="M-4.781 9.432L10.749 9.432 10.749 -4.989 -4.781 -4.989z" mask="url(#p21xkczvbv)"/>
                    </g>
                    <g transform="translate(0 -92) translate(0 92) translate(53 56) translate(223 124.38)">
                        <mask id="fu9pfkdt1x" fill="#fff">
                            <use xlink:href="#i7kikvdaqw"/>
                        </mask>
                        <path fill="#705555" d="M-5.502 9.432L10.028 9.432 10.028 -4.989 -5.502 -4.989z" mask="url(#fu9pfkdt1x)"/>
                    </g>
                    <g transform="translate(0 -92) translate(0 92) translate(53 56) translate(193 116.38)">
                        <mask id="gfwbgzzv1z" fill="#fff">
                            <use xlink:href="#dj6fu4zecy"/>
                        </mask>
                        <path fill="#F3E9E9" d="M-4.569 10.777L35.817 10.777 35.817 -4.753 -4.569 -4.753z" mask="url(#gfwbgzzv1z)"/>
                    </g>
                    <g transform="translate(0 -92) translate(0 92) translate(53 56) translate(193 123.38)">
                        <mask id="vehqk99fbB" fill="#fff">
                            <use xlink:href="#umjad91brA"/>
                        </mask>
                        <path fill="#C95865" d="M-5.453 25.963L36.7 25.963 36.7 -5.098 -5.453 -5.098z" mask="url(#vehqk99fbB)"/>
                    </g>
                    <g transform="translate(0 -92) translate(0 92) translate(53 56) translate(205 132.38)">
                        <mask id="tchae92trD" fill="#fff">
                            <use xlink:href="#io9oz61gsC"/>
                        </mask>
                        <path fill="#F3E9EB" d="M-5.251 16.963L12.498 16.963 12.498 -5.223 -5.251 -5.223z" mask="url(#tchae92trD)"/>
                    </g>
                    <g transform="translate(0 -92) translate(0 92) translate(53 56) translate(206 134.38)">
                        <mask id="pxetad2c8F" fill="#fff">
                            <use xlink:href="#2cwwdhir0E"/>
                        </mask>
                        <path fill="#6E657D" d="M-5.142 7.198L10.388 7.198 10.388 -5.004 -5.142 -5.004z" mask="url(#pxetad2c8F)"/>
                    </g>
                    <g transform="translate(0 -92) translate(0 92) translate(53 56) translate(206 136.38)">
                        <mask id="oqyjfajc1H" fill="#fff">
                            <use xlink:href="#hgvufa89dG"/>
                        </mask>
                        <path fill="#6E657D" d="M-5.142 7.415L10.388 7.415 10.388 -4.787 -5.142 -4.787z" mask="url(#oqyjfajc1H)"/>
                    </g>
                    <g transform="translate(0 -92) translate(0 92) translate(53 56) translate(207 140.38)">
                        <mask id="9rliopi2hJ" fill="#fff">
                            <use xlink:href="#baepd0jiuI"/>
                        </mask>
                        <path fill="#6E657D" d="M-5.032 6.744L8.28 6.744 8.28 -5.458 -5.032 -5.458z" mask="url(#9rliopi2hJ)"/>
                    </g>
                    <g transform="translate(0 -92) translate(0 92) translate(53 56) translate(207 114.38)">
                        <mask id="m8un8vs8wL" fill="#fff">
                            <use xlink:href="#rcjoiag1bK"/>
                        </mask>
                        <path fill="#705555" d="M-5.032 8.34L8.28 8.34 8.28 -4.972 -5.032 -4.972z" mask="url(#m8un8vs8wL)"/>
                    </g>
                    <g transform="translate(0 -92) translate(0 92) translate(53 56) translate(204 112.38)">
                        <mask id="91gf7z8sjN" fill="#fff">
                            <use xlink:href="#ntfmxe716M"/>
                        </mask>
                        <path fill="#705555" d="M-5.36 8.121L14.608 8.121 14.608 -5.191 -5.36 -5.191z" mask="url(#91gf7z8sjN)"/>
                    </g>
                    <g transform="translate(0 -92) translate(0 92) translate(53 56) translate(197 143.38)">
                        <mask id="i3mgyzgruP" fill="#fff">
                            <use xlink:href="#m7zlgjb1sO"/>
                        </mask>
                        <path fill="#705555" d="M-5.016 7.072L11.623 7.072 11.623 -5.13 -5.016 -5.13z" mask="url(#i3mgyzgruP)"/>
                    </g>
                    <g transform="translate(0 -92) translate(0 92) translate(53 56) translate(214 143.38)">
                        <mask id="b8pq8cuu8R" fill="#fff">
                            <use xlink:href="#xzu3i3f84Q"/>
                        </mask>
                        <path fill="#705555" d="M-5.377 7.072L11.263 7.072 11.263 -5.13 -5.377 -5.13z" mask="url(#b8pq8cuu8R)"/>
                    </g>
                    <g transform="translate(0 -92) translate(0 92) translate(53 56) translate(190 121.38)">
                        <mask id="5ckvocc9oT" fill="#fff">
                            <use xlink:href="#j4ksr7uv3S"/>
                        </mask>
                        <path fill="#705555" d="M-4.672 7.996L41.919 7.996 41.919 -5.316 -4.672 -5.316z" mask="url(#5ckvocc9oT)"/>
                    </g>
                    <path fill="#E5E9EA" d="M107.053 108.682s7.157-10.858 4.34-20.067c0 0 16.162-14.185 2.9-26.582 0 0 1.078-22.302-21.57-17.625 0 0-12.453-16.268-25.464-4.533 0 0-10.014-5.68-11.883 7.362 0 0-17.038 7.501-4.647 17.396 0 0-2.528 18.962 15.136 18.062 0 0 3.538 12.466 21.916 11.871 0 0 8.922 6.754 14.26 3.13 0 0 8.158 5.584 5.012 10.986" transform="translate(0 -92) translate(0 92) translate(53 56)"/>
                    <g transform="translate(0 -92) translate(0 92) translate(53 56) translate(78 59.38)">
                        <mask id="nsq6tja8tV" fill="#fff">
                            <use xlink:href="#3jwzq04dsU"/>
                        </mask>
                        <path fill="#E8FCA7" d="M-1.708 -6.204L28.844 -1.208 24.372 26.139 -6.18 21.142z" mask="url(#nsq6tja8tV)"/>
                    </g>
                    <g transform="translate(0 -92) translate(0 92) translate(53 56) translate(80 53.38)">
                        <mask id="hz19xwk7tX" fill="#fff">
                            <use xlink:href="#2xl9o93zfW"/>
                        </mask>
                        <path fill="#176A25" d="M-2.512 -6.499L20.527 -2.731 16.759 20.308 -6.28 16.54z" mask="url(#hz19xwk7tX)"/>
                    </g>
                    <g transform="translate(0 -92) translate(0 92) translate(53 56) translate(72 54.38)">
                        <mask id="g3fa7pt7tZ" fill="#fff">
                            <use xlink:href="#b0q14p6o9Y"/>
                        </mask>
                        <path fill="#287E36" d="M-2.662 -5.875L20.377 -2.107 16.609 20.932 -6.43 17.164z" mask="url(#g3fa7pt7tZ)"/>
                    </g>
                    <g transform="translate(0 -92) translate(0 92) translate(53 56) translate(73 64.38)">
                        <mask id="a71z51714ab" fill="#fff">
                            <use xlink:href="#8h9a05f8laa"/>
                        </mask>
                        <path fill="#176A25" d="M-2.352 -5.805L20.688 -2.037 16.919 21.002 -6.12 17.234z" mask="url(#a71z51714ab)"/>
                    </g>
                    <path fill="#EDF3F5" d="M109.092 156.178s3.3-18.15-5.5-28.603c0 0 13.2-27.5-11.001-36.303 0 0-11.001-29.702-37.953-11 0 0-25.303-14.302-35.753 8.25 0 0-16.23-1.843-11.413 16.218 0 0-18.062 19.266 3.612 25.287 0 0 7.25 26.151 29.802 15.15 0 0 11.552 14.301 35.203 3.3 0 0 15.4 3.85 20.353-3.85 0 0 13.75 2.75 12.65 11.551" transform="translate(0 -92) translate(0 92) translate(53 56)"/>
                    <g transform="translate(0 -92) translate(0 92) translate(53 56) translate(41 91.38)">
                        <mask id="v7vkouxl8ad" fill="#fff">
                            <use xlink:href="#wexngey2eac"/>
                        </mask>
                        <path fill="#FCF6ED" d="M1.012 13.814L9.269 2.621C10.932.367 14.107-.112 16.36 1.55l11.193 8.257c1.127.831 1.366 2.419.535 3.546-.4.541-.997.901-1.662 1.002L3.43 17.827c-1.385.209-2.677-.744-2.886-2.129-.1-.665.068-1.343.467-1.884" mask="url(#v7vkouxl8ad)"/>
                    </g>
                    <g transform="translate(0 -92) translate(0 92) translate(53 56) translate(41 91.38)">
                        <mask id="egwda2dhxaf" fill="#fff">
                            <use xlink:href="#xg0rbgqeiae"/>
                        </mask>
                        <path stroke="#E5DCCF" stroke-linejoin="round" d="M1.012 13.814L9.269 2.621C10.932.367 14.107-.112 16.36 1.55l11.193 8.257c1.127.831 1.366 2.419.535 3.546-.4.541-.997.901-1.662 1.002L3.43 17.827c-1.385.209-2.677-.744-2.886-2.129-.1-.665.068-1.343.467-1.884z" mask="url(#egwda2dhxaf)"/>
                    </g>
                    <g transform="translate(0 -92) translate(0 92) translate(53 56) translate(37 99.38)">
                        <mask id="jgo29yehxah" fill="#fff">
                            <use xlink:href="#m8yjlnw9qag"/>
                        </mask>
                        <path fill="#F8C658" d="M-9.248 1.037L43.766 -6.967 50.072 34.805 -2.942 42.808z" mask="url(#jgo29yehxah)"/>
                    </g>
                    <g transform="translate(0 -92) translate(0 92) translate(53 56) translate(49 111.38)">
                        <mask id="kiwlfkvcvaj" fill="#fff">
                            <use xlink:href="#venlo4cq8ai"/>
                        </mask>
                        <path fill="#FFECC2" d="M-7.145 -3.708L20.436 -7.872 23.842 14.694 -3.738 18.858z" mask="url(#kiwlfkvcvaj)"/>
                    </g>
                    <g transform="translate(0 -92) translate(0 92) translate(53 56) translate(54 93.38)">
                        <mask id="r8zgd9pcial" fill="#fff">
                            <use xlink:href="#hlzrkebfpak"/>
                        </mask>
                        <path fill="#E5DCCF" d="M-7.273 -4.394L6.518 -6.476 8.599 7.314 -5.191 9.396z" mask="url(#r8zgd9pcial)"/>
                    </g>
                    <g transform="translate(0 -92) translate(0 92) translate(53 56) translate(54 98.38)">
                        <mask id="iqg2wfcevan" fill="#fff">
                            <use xlink:href="#mdiok47wtam"/>
                        </mask>
                        <path fill="#E5DCCF" d="M-6.516 -4.38L7.274 -6.462 9.356 7.328 -4.435 9.411z" mask="url(#iqg2wfcevan)"/>
                    </g>
                    <g transform="translate(0 -92) translate(0 92) translate(53 56) translate(56 95.38)">
                        <mask id="4s0vuqcswap" fill="#fff">
                            <use xlink:href="#n3xy0uagxao"/>
                        </mask>
                        <path fill="#E5DCCF" d="M-6.388 -4.266L7.403 -6.348 9.484 7.442 -4.306 9.525z" mask="url(#4s0vuqcswap)"/>
                    </g>
                    <g transform="translate(0 -92) translate(0 92) translate(53 56) translate(59 98.38)">
                        <mask id="2v0eip1s7ar" fill="#fff">
                            <use xlink:href="#jpffzzzqiaq"/>
                        </mask>
                        <path fill="#E5DCCF" d="M-6.501 -5.137L7.289 -7.219 9.371 6.571 -4.42 8.653z" mask="url(#2v0eip1s7ar)"/>
                    </g>
                    <g>
                        <path fill="#EBCAA1" d="M20.741 9.079c0 4.954-2.354 9.009-6.834 8.97-4.586-.041-6.834-4.016-6.834-8.97 0-4.954 3.06-8.97 6.834-8.97 3.773 0 6.834 4.016 6.834 8.97" transform="translate(0 -92) translate(0 92) translate(53 56) translate(172 65.38)"/>
                        <path fill="#EBCAA1" d="M32.996 9.079c0 4.954-2.353 9.009-6.834 8.97-4.585-.041-6.834-4.016-6.834-8.97 0-4.954 3.061-8.97 6.834-8.97 3.774 0 6.834 4.016 6.834 8.97" transform="translate(0 -92) translate(0 92) translate(53 56) translate(172 65.38)"/>
                        <path fill="#F2D8AF" d="M14.53 15.815c0 4.954-2.354 9.01-6.835 8.97-4.585-.04-6.834-4.016-6.834-8.97 0-4.954 3.061-8.969 6.834-8.969 3.774 0 6.834 4.015 6.834 8.97" transform="translate(0 -92) translate(0 92) translate(53 56) translate(172 65.38)"/>
                        <path fill="#F2D8AF" d="M26.785 15.815c0 4.954-2.353 9.01-6.834 8.97-4.585-.04-6.834-4.016-6.834-8.97 0-4.954 3.06-8.969 6.834-8.969 3.774 0 6.834 4.015 6.834 8.97" transform="translate(0 -92) translate(0 92) translate(53 56) translate(172 65.38)"/>
                        <path fill="#F2D8AF" d="M39.041 15.815c0 4.954-2.353 9.01-6.834 8.97-4.585-.04-6.834-4.016-6.834-8.97 0-4.954 3.06-8.969 6.834-8.969 3.774 0 6.834 4.015 6.834 8.97" transform="translate(0 -92) translate(0 92) translate(53 56) translate(172 65.38)"/>
                    </g>
                </g>
            </g>
        </g>
    </g>
</svg>
